<svg xmlns="http://www.w3.org/2000/svg" xmlns:xlink="http://www.w3.org/1999/xlink" width="100" zoomAndPan="magnify" viewBox="0 0 75 74.999997" height="100" preserveAspectRatio="xMidYMid meet" version="1.0"><defs><clipPath id="3ca4bf1a7d"><path d="M 6.929688 7 L 66 7 L 66 66 L 6.929688 66 Z M 6.929688 7 " clip-rule="nonzero"/></clipPath></defs><path fill="#FACC15" d="M 61.460938 35.691406 C 61.460938 36.527344 61.421875 37.363281 61.339844 38.195312 C 61.257812 39.027344 61.132812 39.851562 60.972656 40.671875 C 60.808594 41.492188 60.605469 42.300781 60.363281 43.101562 C 60.121094 43.902344 59.839844 44.6875 59.519531 45.460938 C 59.199219 46.230469 58.84375 46.988281 58.449219 47.722656 C 58.054688 48.460938 57.625 49.175781 57.160156 49.871094 C 56.695312 50.566406 56.199219 51.238281 55.667969 51.882812 C 55.136719 52.53125 54.578125 53.148438 53.988281 53.738281 C 53.394531 54.332031 52.777344 54.890625 52.128906 55.421875 C 51.484375 55.953125 50.8125 56.449219 50.121094 56.914062 C 49.425781 57.378906 48.707031 57.808594 47.972656 58.199219 C 47.234375 58.59375 46.480469 58.953125 45.707031 59.273438 C 44.933594 59.589844 44.148438 59.871094 43.347656 60.117188 C 42.546875 60.359375 41.738281 60.5625 40.917969 60.722656 C 40.097656 60.886719 39.273438 61.007812 38.441406 61.089844 C 37.609375 61.171875 36.777344 61.214844 35.941406 61.214844 C 35.105469 61.214844 34.269531 61.171875 33.4375 61.089844 C 32.605469 61.007812 31.78125 60.886719 30.960938 60.722656 C 30.140625 60.5625 29.332031 60.359375 28.53125 60.117188 C 27.730469 59.871094 26.945312 59.589844 26.171875 59.273438 C 25.402344 58.953125 24.648438 58.59375 23.910156 58.199219 C 23.171875 57.808594 22.457031 57.378906 21.761719 56.914062 C 21.066406 56.449219 20.394531 55.953125 19.75 55.421875 C 19.101562 54.890625 18.484375 54.332031 17.894531 53.738281 C 17.300781 53.148438 16.742188 52.53125 16.210938 51.882812 C 15.679688 51.238281 15.183594 50.566406 14.71875 49.871094 C 14.253906 49.175781 13.824219 48.460938 13.433594 47.722656 C 13.039062 46.988281 12.679688 46.230469 12.359375 45.460938 C 12.042969 44.6875 11.761719 43.902344 11.515625 43.101562 C 11.273438 42.300781 11.070312 41.492188 10.910156 40.671875 C 10.746094 39.851562 10.625 39.027344 10.542969 38.195312 C 10.460938 37.363281 10.417969 36.527344 10.417969 35.691406 C 10.417969 34.855469 10.460938 34.023438 10.542969 33.191406 C 10.625 32.359375 10.746094 31.535156 10.910156 30.714844 C 11.070312 29.894531 11.273438 29.085938 11.515625 28.285156 C 11.761719 27.484375 12.042969 26.699219 12.359375 25.925781 C 12.679688 25.152344 13.039062 24.398438 13.433594 23.664062 C 13.824219 22.925781 14.253906 22.207031 14.71875 21.515625 C 15.183594 20.820312 15.679688 20.148438 16.210938 19.503906 C 16.742188 18.855469 17.300781 18.238281 17.894531 17.648438 C 18.484375 17.054688 19.101562 16.496094 19.75 15.964844 C 20.394531 15.433594 21.066406 14.9375 21.761719 14.472656 C 22.457031 14.007812 23.171875 13.578125 23.910156 13.183594 C 24.648438 12.789062 25.402344 12.433594 26.171875 12.113281 C 26.945312 11.792969 27.730469 11.511719 28.53125 11.269531 C 29.332031 11.027344 30.140625 10.824219 30.960938 10.660156 C 31.78125 10.5 32.605469 10.375 33.4375 10.292969 C 34.269531 10.210938 35.105469 10.171875 35.941406 10.171875 C 36.777344 10.171875 37.609375 10.210938 38.441406 10.292969 C 39.273438 10.375 40.097656 10.5 40.917969 10.660156 C 41.738281 10.824219 42.546875 11.027344 43.347656 11.269531 C 44.148438 11.511719 44.933594 11.792969 45.707031 12.113281 C 46.480469 12.433594 47.234375 12.789062 47.972656 13.183594 C 48.707031 13.578125 49.425781 14.007812 50.121094 14.472656 C 50.8125 14.9375 51.484375 15.433594 52.128906 15.964844 C 52.777344 16.496094 53.394531 17.054688 53.988281 17.648438 C 54.578125 18.238281 55.136719 18.855469 55.667969 19.503906 C 56.199219 20.148438 56.695312 20.820312 57.160156 21.515625 C 57.625 22.207031 58.054688 22.925781 58.449219 23.664062 C 58.84375 24.398438 59.199219 25.152344 59.519531 25.925781 C 59.839844 26.699219 60.121094 27.484375 60.363281 28.285156 C 60.605469 29.085938 60.808594 29.894531 60.972656 30.714844 C 61.132812 31.535156 61.257812 32.359375 61.339844 33.191406 C 61.421875 34.023438 61.460938 34.855469 61.460938 35.691406 Z M 61.460938 35.691406 " fill-opacity="1" fill-rule="nonzero"/><g clip-path="url(#3ca4bf1a7d)"><path fill="#000000" d="M 58.34375 17.101562 C 57.613281 16.269531 56.839844 15.480469 56.019531 14.734375 C 55.199219 13.992188 54.339844 13.292969 53.441406 12.644531 C 52.542969 12 51.609375 11.402344 50.644531 10.859375 C 49.679688 10.320312 48.683594 9.832031 47.664062 9.402344 C 46.644531 8.972656 45.601562 8.601562 44.539062 8.289062 C 43.476562 7.980469 42.398438 7.726562 41.304688 7.539062 C 40.214844 7.347656 39.117188 7.222656 38.011719 7.15625 C 36.902344 7.089844 35.796875 7.089844 34.691406 7.148438 C 33.585938 7.207031 32.488281 7.332031 31.394531 7.515625 C 30.300781 7.699219 29.222656 7.945312 28.160156 8.25 C 27.09375 8.558594 26.050781 8.921875 25.027344 9.347656 C 24.003906 9.773438 23.007812 10.253906 22.039062 10.792969 C 21.070312 11.328125 20.136719 11.921875 19.234375 12.5625 C 18.332031 13.207031 17.46875 13.898438 16.644531 14.640625 C 15.824219 15.382812 15.042969 16.167969 14.308594 16.996094 C 13.574219 17.824219 12.890625 18.695312 12.253906 19.601562 C 11.589844 20.546875 10.980469 21.527344 10.429688 22.539062 C 8.339844 26.421875 7.1875 30.566406 6.976562 34.96875 C 6.953125 35.460938 6.9375 35.960938 6.9375 36.460938 C 6.9375 37.050781 6.957031 37.640625 6.992188 38.230469 C 7.027344 38.820312 7.078125 39.410156 7.148438 39.996094 C 7.222656 40.582031 7.308594 41.164062 7.417969 41.746094 C 7.523438 42.328125 7.644531 42.90625 7.789062 43.480469 C 7.929688 44.050781 8.085938 44.621094 8.261719 45.1875 C 8.4375 45.75 8.628906 46.308594 8.839844 46.859375 C 9.046875 47.414062 9.273438 47.957031 9.515625 48.496094 C 9.757812 49.035156 10.015625 49.566406 10.289062 50.089844 C 10.5625 50.613281 10.851562 51.128906 11.160156 51.632812 C 11.464844 52.140625 11.785156 52.636719 12.117188 53.121094 C 12.453125 53.609375 12.804688 54.085938 13.167969 54.550781 C 13.53125 55.015625 13.910156 55.46875 14.300781 55.914062 C 14.691406 56.355469 15.097656 56.785156 15.511719 57.203125 C 15.929688 57.621094 16.359375 58.027344 16.800781 58.417969 C 17.242188 58.8125 17.695312 59.191406 18.160156 59.554688 C 18.625 59.921875 19.101562 60.269531 19.585938 60.605469 C 20.070312 60.945312 20.566406 61.265625 21.074219 61.570312 C 21.578125 61.878906 22.089844 62.167969 22.613281 62.445312 C 23.136719 62.71875 23.667969 62.976562 24.207031 63.222656 C 24.742188 63.464844 25.289062 63.691406 25.839844 63.902344 C 26.394531 64.113281 26.949219 64.304688 27.515625 64.484375 C 28.078125 64.660156 28.648438 64.820312 29.21875 64.960938 C 29.792969 65.105469 30.371094 65.230469 30.953125 65.335938 C 31.53125 65.445312 32.117188 65.535156 32.703125 65.605469 C 33.289062 65.679688 33.875 65.734375 34.464844 65.769531 C 35.054688 65.804688 35.644531 65.824219 36.238281 65.828125 C 36.828125 65.828125 37.417969 65.8125 38.007812 65.777344 C 38.597656 65.742188 39.183594 65.691406 39.773438 65.621094 C 40.359375 65.550781 40.941406 65.464844 41.523438 65.359375 C 42.105469 65.253906 42.683594 65.128906 43.257812 64.988281 C 43.832031 64.851562 44.398438 64.691406 44.964844 64.519531 C 45.527344 64.34375 46.085938 64.152344 46.640625 63.945312 C 47.191406 63.738281 47.738281 63.511719 48.277344 63.269531 C 48.816406 63.03125 49.347656 62.773438 49.871094 62.5 C 50.398438 62.226562 50.910156 61.9375 51.417969 61.632812 C 51.925781 61.328125 52.421875 61.011719 52.910156 60.675781 C 53.394531 60.339844 53.871094 59.992188 54.339844 59.628906 C 54.804688 59.265625 55.257812 58.890625 55.703125 58.5 C 56.144531 58.109375 56.578125 57.707031 56.996094 57.289062 C 57.414062 56.871094 57.820312 56.445312 58.214844 56.003906 C 58.605469 55.5625 58.984375 55.109375 59.351562 54.644531 C 59.71875 54.183594 60.070312 53.707031 60.40625 53.222656 C 60.742188 52.738281 61.066406 52.242188 61.371094 51.738281 C 61.679688 51.234375 61.972656 50.71875 62.25 50.199219 C 62.523438 49.675781 62.785156 49.144531 63.027344 48.609375 C 63.273438 48.070312 63.5 47.523438 63.710938 46.972656 C 63.921875 46.421875 64.117188 45.863281 64.296875 45.300781 C 64.472656 44.738281 64.632812 44.167969 64.777344 43.597656 C 64.921875 43.023438 65.046875 42.445312 65.15625 41.867188 C 65.265625 41.285156 65.355469 40.703125 65.429688 40.117188 C 65.503906 39.527344 65.558594 38.941406 65.597656 38.351562 C 65.632812 37.761719 65.652344 37.171875 65.65625 36.582031 C 65.660156 35.992188 65.644531 35.398438 65.609375 34.8125 C 65.578125 34.222656 65.523438 33.632812 65.457031 33.046875 C 65.386719 32.460938 65.300781 31.875 65.195312 31.292969 C 65.09375 30.710938 64.972656 30.132812 64.832031 29.558594 C 64.691406 28.984375 64.539062 28.417969 64.363281 27.851562 C 64.191406 27.285156 64 26.726562 63.792969 26.175781 C 63.585938 25.621094 63.363281 25.074219 63.121094 24.535156 C 62.882812 23.996094 62.625 23.464844 62.355469 22.9375 C 62.082031 22.414062 61.792969 21.898438 61.492188 21.390625 C 61.1875 20.886719 60.867188 20.386719 60.535156 19.898438 C 60.203125 19.414062 59.855469 18.933594 59.492188 18.46875 C 59.128906 18 58.753906 17.546875 58.363281 17.101562 Z M 26.492188 40.511719 C 28.96875 42.253906 31.292969 43.300781 33.691406 43.6875 L 33.691406 39.03125 C 27.457031 37.601562 24.285156 35.472656 24.285156 30.671875 L 24.285156 30.597656 C 24.285156 26.03125 27.617188 22.855469 33.539062 22.429688 L 33.539062 20.222656 L 37.5625 20.222656 L 37.5625 22.542969 C 40.542969 22.855469 43.261719 23.863281 45.726562 25.566406 L 42.550781 30.75 C 40.96875 29.660156 39.238281 28.894531 37.367188 28.445312 L 37.367188 32.9375 C 43.507812 34.367188 46.617188 36.574219 46.617188 41.378906 L 46.617188 41.457031 C 46.617188 46.179688 42.980469 49.078125 37.484375 49.585938 L 37.484375 53.378906 L 33.460938 53.378906 L 33.460938 49.480469 C 29.640625 49.117188 26.160156 47.835938 23.011719 45.644531 Z M 26.492188 40.511719 " fill-opacity="1" fill-rule="nonzero"/></g><path fill="#000000" d="M 39.921875 41.9375 L 39.921875 41.859375 C 39.921875 40.8125 39.339844 40.234375 37.328125 39.652344 L 37.328125 43.910156 C 39.109375 43.71875 39.921875 43.058594 39.921875 41.9375 Z M 39.921875 41.9375 " fill-opacity="1" fill-rule="nonzero"/><path fill="#000000" d="M 33.730469 28.078125 C 31.832031 28.234375 31.097656 29.011719 31.097656 30.015625 L 31.097656 30.09375 C 31.097656 31.097656 31.640625 31.679688 33.730469 32.261719 Z M 33.730469 28.078125 " fill-opacity="1" fill-rule="nonzero"/></svg>