<svg xmlns="http://www.w3.org/2000/svg" xmlns:xlink="http://www.w3.org/1999/xlink" width="100" zoomAndPan="magnify" viewBox="0 0 75 74.999997" height="100" preserveAspectRatio="xMidYMid meet" version="1.0"><defs><clipPath id="9a034c36f3"><path d="M 7.5 7.5 L 67.5 7.5 L 67.5 67.5 L 7.5 67.5 Z M 7.5 7.5 " clip-rule="nonzero"/></clipPath></defs><g clip-path="url(#9a034c36f3)"><path fill="#000000" d="M 67.5 37.5 C 67.5 38.484375 67.453125 39.460938 67.355469 40.441406 C 67.257812 41.417969 67.117188 42.390625 66.921875 43.351562 C 66.730469 44.316406 66.492188 45.269531 66.207031 46.207031 C 65.921875 47.148438 65.59375 48.074219 65.214844 48.980469 C 64.839844 49.886719 64.421875 50.773438 63.957031 51.640625 C 63.496094 52.507812 62.988281 53.351562 62.445312 54.167969 C 61.898438 54.984375 61.3125 55.773438 60.691406 56.53125 C 60.066406 57.292969 59.40625 58.019531 58.714844 58.714844 C 58.019531 59.40625 57.292969 60.066406 56.53125 60.691406 C 55.773438 61.3125 54.984375 61.898438 54.167969 62.445312 C 53.351562 62.988281 52.507812 63.496094 51.640625 63.957031 C 50.773438 64.421875 49.886719 64.839844 48.980469 65.214844 C 48.074219 65.59375 47.148438 65.921875 46.207031 66.207031 C 45.269531 66.492188 44.316406 66.730469 43.351562 66.921875 C 42.390625 67.113281 41.417969 67.257812 40.441406 67.355469 C 39.460938 67.453125 38.484375 67.5 37.5 67.5 C 36.515625 67.5 35.539062 67.453125 34.558594 67.355469 C 33.582031 67.257812 32.609375 67.113281 31.648438 66.921875 C 30.683594 66.730469 29.730469 66.492188 28.792969 66.207031 C 27.851562 65.921875 26.925781 65.59375 26.019531 65.214844 C 25.113281 64.839844 24.226562 64.421875 23.359375 63.957031 C 22.492188 63.496094 21.648438 62.988281 20.832031 62.445312 C 20.015625 61.898438 19.226562 61.3125 18.46875 60.691406 C 17.707031 60.066406 16.980469 59.40625 16.285156 58.714844 C 15.59375 58.019531 14.933594 57.292969 14.308594 56.53125 C 13.6875 55.773438 13.101562 54.984375 12.554688 54.167969 C 12.011719 53.351562 11.503906 52.507812 11.042969 51.640625 C 10.578125 50.773438 10.160156 49.886719 9.785156 48.980469 C 9.40625 48.074219 9.078125 47.148438 8.792969 46.207031 C 8.507812 45.269531 8.269531 44.316406 8.078125 43.351562 C 7.882812 42.390625 7.742188 41.417969 7.644531 40.441406 C 7.546875 39.460938 7.5 38.484375 7.5 37.5 C 7.5 36.515625 7.546875 35.539062 7.644531 34.558594 C 7.742188 33.582031 7.882812 32.609375 8.078125 31.648438 C 8.269531 30.683594 8.507812 29.730469 8.792969 28.792969 C 9.078125 27.851562 9.40625 26.925781 9.785156 26.019531 C 10.160156 25.113281 10.578125 24.226562 11.042969 23.359375 C 11.503906 22.492188 12.011719 21.648438 12.554688 20.832031 C 13.101562 20.015625 13.6875 19.226562 14.308594 18.46875 C 14.933594 17.707031 15.59375 16.980469 16.285156 16.285156 C 16.980469 15.59375 17.707031 14.933594 18.46875 14.308594 C 19.226562 13.6875 20.015625 13.101562 20.832031 12.554688 C 21.648438 12.011719 22.492188 11.503906 23.359375 11.042969 C 24.226562 10.578125 25.113281 10.160156 26.019531 9.785156 C 26.925781 9.40625 27.851562 9.078125 28.792969 8.792969 C 29.730469 8.507812 30.683594 8.269531 31.648438 8.078125 C 32.609375 7.882812 33.582031 7.742188 34.558594 7.644531 C 35.539062 7.546875 36.515625 7.5 37.5 7.5 C 38.484375 7.5 39.460938 7.546875 40.441406 7.644531 C 41.417969 7.742188 42.390625 7.882812 43.351562 8.078125 C 44.316406 8.269531 45.269531 8.507812 46.207031 8.792969 C 47.148438 9.078125 48.074219 9.40625 48.980469 9.785156 C 49.886719 10.160156 50.773438 10.578125 51.640625 11.042969 C 52.507812 11.503906 53.351562 12.011719 54.167969 12.554688 C 54.984375 13.101562 55.773438 13.6875 56.53125 14.308594 C 57.292969 14.933594 58.019531 15.59375 58.714844 16.285156 C 59.40625 16.980469 60.066406 17.707031 60.691406 18.46875 C 61.3125 19.226562 61.898438 20.015625 62.445312 20.832031 C 62.988281 21.648438 63.496094 22.492188 63.957031 23.359375 C 64.421875 24.226562 64.839844 25.113281 65.214844 26.019531 C 65.59375 26.925781 65.921875 27.851562 66.207031 28.792969 C 66.492188 29.730469 66.730469 30.683594 66.921875 31.648438 C 67.117188 32.609375 67.257812 33.582031 67.355469 34.558594 C 67.453125 35.539062 67.5 36.515625 67.5 37.5 Z M 67.5 37.5 " fill-opacity="1" fill-rule="nonzero"/></g><path fill="#FACC15" d="M 39.917969 37.769531 C 38.609375 36.460938 36.476562 36.460938 35.167969 37.769531 C 34.996094 37.9375 34.722656 37.9375 34.554688 37.769531 C 34.382812 37.597656 34.382812 37.324219 34.554688 37.15625 C 36.199219 35.507812 38.878906 35.507812 40.527344 37.15625 C 40.695312 37.324219 40.695312 37.597656 40.527344 37.769531 C 40.441406 37.851562 40.332031 37.898438 40.21875 37.898438 C 40.113281 37.894531 40 37.855469 39.917969 37.769531 Z M 37.542969 34.109375 C 35.183594 34.109375 33.261719 36.027344 33.261719 38.390625 C 33.261719 40.75 35.179688 42.671875 37.542969 42.671875 C 39.90625 42.671875 41.824219 40.753906 41.824219 38.390625 C 41.824219 36.03125 39.902344 34.109375 37.542969 34.109375 Z M 35.671875 38.761719 C 35.503906 38.929688 35.503906 39.203125 35.671875 39.371094 C 35.757812 39.457031 35.867188 39.5 35.980469 39.5 C 36.089844 39.5 36.199219 39.457031 36.285156 39.371094 C 36.980469 38.679688 38.105469 38.679688 38.800781 39.371094 C 38.96875 39.542969 39.242188 39.542969 39.414062 39.371094 C 39.582031 39.203125 39.582031 38.929688 39.414062 38.761719 C 38.378906 37.730469 36.703125 37.730469 35.671875 38.761719 Z M 37.972656 40.425781 C 37.972656 40.539062 37.929688 40.652344 37.847656 40.730469 C 37.765625 40.8125 37.652344 40.859375 37.539062 40.859375 C 37.425781 40.859375 37.316406 40.8125 37.234375 40.730469 C 37.152344 40.652344 37.109375 40.539062 37.109375 40.425781 C 37.109375 40.398438 37.109375 40.371094 37.117188 40.34375 C 37.121094 40.3125 37.132812 40.289062 37.140625 40.261719 C 37.152344 40.234375 37.167969 40.210938 37.183594 40.1875 C 37.199219 40.160156 37.21875 40.140625 37.238281 40.121094 C 37.257812 40.097656 37.277344 40.082031 37.304688 40.066406 C 37.328125 40.050781 37.351562 40.035156 37.378906 40.023438 C 37.40625 40.015625 37.433594 40.007812 37.460938 40 C 37.515625 39.988281 37.574219 39.988281 37.628906 40 C 37.65625 40.003906 37.683594 40.015625 37.710938 40.023438 C 37.738281 40.035156 37.761719 40.050781 37.785156 40.066406 C 37.808594 40.082031 37.828125 40.097656 37.851562 40.121094 C 37.871094 40.140625 37.890625 40.160156 37.90625 40.1875 C 37.921875 40.210938 37.933594 40.234375 37.945312 40.261719 C 37.957031 40.289062 37.964844 40.316406 37.972656 40.34375 C 37.972656 40.371094 37.972656 40.398438 37.972656 40.425781 Z M 37.972656 40.425781 " fill-opacity="1" fill-rule="evenodd"/><path fill="#FACC15" d="M 37.542969 33.242188 C 40.378906 33.242188 42.691406 35.554688 42.691406 38.390625 C 42.691406 41.230469 40.378906 43.539062 37.542969 43.539062 C 34.703125 43.539062 32.394531 41.230469 32.394531 38.390625 C 32.394531 35.550781 34.703125 33.242188 37.542969 33.242188 Z M 37.503906 31.777344 C 33.792969 31.777344 29.980469 32.125 26.453125 32.785156 C 26.332031 33.742188 26.265625 34.824219 26.265625 35.867188 C 26.265625 36.800781 26.320312 37.878906 26.425781 39.003906 C 30.738281 40.660156 33.777344 44.617188 34.101562 48.996094 C 35.140625 49.222656 36.203125 49.339844 37.257812 49.339844 C 38.351562 49.339844 39.605469 49.21875 40.90625 48.992188 C 41.234375 44.613281 44.269531 40.660156 48.582031 39.003906 C 48.6875 37.878906 48.742188 36.800781 48.742188 35.863281 C 48.742188 34.824219 48.671875 33.742188 48.554688 32.785156 C 45.03125 32.125 41.214844 31.777344 37.503906 31.777344 Z M 37.503906 31.777344 " fill-opacity="1" fill-rule="evenodd"/><path fill="#FACC15" d="M 49.609375 35.863281 C 49.609375 36.71875 49.566406 37.6875 49.480469 38.699219 C 50.445312 38.410156 51.4375 38.25 52.4375 38.210938 C 52.449219 37.976562 52.453125 37.738281 52.453125 37.5 C 52.453125 36.132812 52.269531 34.804688 51.921875 33.542969 C 51.113281 33.328125 50.285156 33.132812 49.445312 32.960938 C 49.550781 33.878906 49.609375 34.890625 49.609375 35.863281 Z M 49.609375 35.863281 " fill-opacity="1" fill-rule="evenodd"/><path fill="#FACC15" d="M 53.320312 37.5 C 53.320312 37.863281 53.304688 38.222656 53.28125 38.578125 C 53.285156 38.597656 53.285156 38.617188 53.285156 38.636719 C 53.285156 38.675781 53.28125 38.714844 53.269531 38.753906 C 52.734375 45.550781 47.882812 51.152344 41.464844 52.816406 C 41.429688 52.828125 41.398438 52.839844 41.359375 52.84375 C 40.121094 53.15625 38.828125 53.320312 37.496094 53.320312 C 36.164062 53.320312 34.871094 53.15625 33.632812 52.84375 C 33.605469 52.839844 33.578125 52.832031 33.554688 52.824219 C 27.097656 51.160156 22.222656 45.511719 21.71875 38.667969 L 21.71875 38.660156 C 21.691406 38.277344 21.675781 37.890625 21.675781 37.5 C 21.675781 35.972656 21.894531 34.488281 22.300781 33.089844 C 22.304688 33.058594 22.3125 33.03125 22.324219 33 C 24.269531 26.460938 30.332031 21.679688 37.492188 21.679688 C 44.648438 21.679688 50.710938 26.453125 52.660156 32.984375 C 52.6875 33.039062 52.707031 33.097656 52.710938 33.15625 C 53.109375 34.539062 53.320312 35.996094 53.320312 37.5 Z M 37.5 19.457031 C 27.550781 19.457031 19.457031 27.550781 19.457031 37.5 C 19.457031 47.449219 27.550781 55.542969 37.5 55.542969 C 47.449219 55.542969 55.539062 47.449219 55.539062 37.5 C 55.542969 27.550781 47.449219 19.457031 37.5 19.457031 Z M 37.5 19.457031 " fill-opacity="1" fill-rule="evenodd"/><path fill="#FACC15" d="M 37.257812 50.207031 C 36.210938 50.207031 35.160156 50.101562 34.132812 49.886719 L 34.132812 52.070312 C 35.214844 52.324219 36.34375 52.453125 37.5 52.453125 C 38.660156 52.453125 39.792969 52.320312 40.878906 52.070312 L 40.878906 49.875 C 39.59375 50.09375 38.347656 50.207031 37.257812 50.207031 Z M 37.257812 50.207031 " fill-opacity="1" fill-rule="evenodd"/><path fill="#FACC15" d="M 23.082031 33.523438 C 22.730469 34.789062 22.542969 36.121094 22.542969 37.5 C 22.542969 37.738281 22.550781 37.972656 22.5625 38.210938 C 23.5625 38.246094 24.554688 38.410156 25.527344 38.699219 C 25.441406 37.6875 25.398438 36.71875 25.398438 35.863281 C 25.398438 34.890625 25.453125 33.878906 25.558594 32.957031 C 24.632812 33.148438 23.800781 33.335938 23.082031 33.523438 Z M 23.082031 33.523438 " fill-opacity="1" fill-rule="evenodd"/></svg>