<svg xmlns="http://www.w3.org/2000/svg" xmlns:xlink="http://www.w3.org/1999/xlink" width="100" zoomAndPan="magnify" viewBox="0 0 75 74.999997" height="100" preserveAspectRatio="xMidYMid meet" version="1.0"><defs><clipPath id="8eff11de2d"><path d="M 8.609375 8.609375 L 66.359375 8.609375 L 66.359375 66.359375 L 8.609375 66.359375 Z M 8.609375 8.609375 " clip-rule="nonzero"/></clipPath></defs><g clip-path="url(#8eff11de2d)"><path fill="#000000" d="M 37.484375 8.609375 C 36.539062 8.609375 35.59375 8.65625 34.65625 8.75 C 33.714844 8.839844 32.777344 8.980469 31.851562 9.164062 C 30.925781 9.347656 30.007812 9.578125 29.101562 9.851562 C 28.199219 10.128906 27.308594 10.445312 26.433594 10.808594 C 25.5625 11.167969 24.707031 11.574219 23.875 12.019531 C 23.039062 12.464844 22.230469 12.949219 21.441406 13.476562 C 20.65625 14 19.898438 14.5625 19.167969 15.164062 C 18.4375 15.765625 17.734375 16.398438 17.066406 17.066406 C 16.398438 17.734375 15.765625 18.4375 15.164062 19.167969 C 14.5625 19.898438 14 20.65625 13.476562 21.441406 C 12.949219 22.230469 12.464844 23.039062 12.019531 23.875 C 11.574219 24.707031 11.167969 25.5625 10.808594 26.433594 C 10.445312 27.308594 10.128906 28.199219 9.851562 29.101562 C 9.578125 30.007812 9.347656 30.925781 9.164062 31.851562 C 8.980469 32.777344 8.839844 33.714844 8.75 34.65625 C 8.65625 35.59375 8.609375 36.539062 8.609375 37.484375 C 8.609375 38.429688 8.65625 39.375 8.75 40.316406 C 8.839844 41.257812 8.980469 42.191406 9.164062 43.117188 C 9.347656 44.046875 9.578125 44.960938 9.851562 45.867188 C 10.128906 46.773438 10.445312 47.660156 10.808594 48.535156 C 11.167969 49.410156 11.574219 50.261719 12.019531 51.097656 C 12.464844 51.929688 12.949219 52.742188 13.476562 53.527344 C 14 54.3125 14.5625 55.070312 15.164062 55.804688 C 15.765625 56.535156 16.398438 57.234375 17.066406 57.902344 C 17.734375 58.570312 18.4375 59.207031 19.167969 59.804688 C 19.898438 60.40625 20.65625 60.96875 21.441406 61.492188 C 22.230469 62.019531 23.039062 62.503906 23.875 62.949219 C 24.707031 63.394531 25.5625 63.800781 26.433594 64.160156 C 27.308594 64.523438 28.199219 64.84375 29.101562 65.117188 C 30.007812 65.390625 30.925781 65.621094 31.851562 65.804688 C 32.777344 65.988281 33.714844 66.128906 34.65625 66.222656 C 35.59375 66.3125 36.539062 66.359375 37.484375 66.359375 C 38.429688 66.359375 39.375 66.3125 40.316406 66.222656 C 41.257812 66.128906 42.191406 65.988281 43.117188 65.804688 C 44.046875 65.621094 44.960938 65.390625 45.867188 65.117188 C 46.773438 64.84375 47.660156 64.523438 48.535156 64.160156 C 49.410156 63.800781 50.261719 63.394531 51.097656 62.949219 C 51.929688 62.503906 52.742188 62.019531 53.527344 61.492188 C 54.3125 60.96875 55.070312 60.40625 55.804688 59.804688 C 56.535156 59.207031 57.234375 58.570312 57.902344 57.902344 C 58.570312 57.234375 59.207031 56.535156 59.804688 55.804688 C 60.40625 55.070312 60.96875 54.3125 61.492188 53.527344 C 62.019531 52.742188 62.503906 51.929688 62.949219 51.097656 C 63.394531 50.261719 63.800781 49.410156 64.160156 48.535156 C 64.523438 47.660156 64.84375 46.773438 65.117188 45.867188 C 65.390625 44.960938 65.621094 44.046875 65.804688 43.117188 C 65.988281 42.191406 66.128906 41.257812 66.222656 40.316406 C 66.3125 39.375 66.359375 38.429688 66.359375 37.484375 C 66.359375 36.539062 66.3125 35.597656 66.21875 34.65625 C 66.125 33.714844 65.984375 32.78125 65.800781 31.855469 C 65.613281 30.925781 65.382812 30.011719 65.109375 29.105469 C 64.832031 28.203125 64.515625 27.3125 64.152344 26.441406 C 63.789062 25.566406 63.386719 24.714844 62.941406 23.878906 C 62.496094 23.046875 62.007812 22.238281 61.484375 21.449219 C 60.957031 20.664062 60.394531 19.90625 59.796875 19.175781 C 59.195312 18.445312 58.5625 17.746094 57.890625 17.078125 C 57.222656 16.410156 56.523438 15.773438 55.792969 15.175781 C 55.0625 14.574219 54.304688 14.011719 53.519531 13.488281 C 52.734375 12.960938 51.921875 12.476562 51.089844 12.03125 C 50.257812 11.582031 49.402344 11.179688 48.53125 10.816406 C 47.65625 10.453125 46.765625 10.136719 45.863281 9.859375 C 44.957031 9.585938 44.042969 9.355469 43.117188 9.171875 C 42.1875 8.984375 41.253906 8.84375 40.3125 8.75 C 39.375 8.660156 38.429688 8.609375 37.484375 8.609375 Z M 47.214844 47.214844 C 46.96875 47.460938 46.6875 47.652344 46.363281 47.785156 C 46.042969 47.917969 45.707031 47.984375 45.359375 47.984375 C 45.011719 47.984375 44.675781 47.917969 44.355469 47.785156 C 44.035156 47.652344 43.75 47.460938 43.503906 47.214844 L 35.628906 39.339844 C 35.117188 38.828125 34.859375 38.210938 34.859375 37.484375 L 34.859375 21.734375 C 34.859375 21.386719 34.925781 21.050781 35.058594 20.730469 C 35.191406 20.410156 35.382812 20.125 35.628906 19.878906 C 35.875 19.632812 36.160156 19.441406 36.480469 19.308594 C 36.800781 19.175781 37.136719 19.109375 37.484375 19.109375 C 37.832031 19.109375 38.167969 19.175781 38.488281 19.308594 C 38.8125 19.441406 39.09375 19.632812 39.339844 19.878906 C 39.585938 20.125 39.777344 20.410156 39.910156 20.730469 C 40.042969 21.050781 40.109375 21.386719 40.109375 21.734375 L 40.109375 36.398438 L 47.214844 43.503906 C 47.460938 43.75 47.652344 44.035156 47.785156 44.355469 C 47.917969 44.675781 47.984375 45.011719 47.984375 45.359375 C 47.984375 45.707031 47.917969 46.042969 47.785156 46.363281 C 47.652344 46.6875 47.460938 46.96875 47.214844 47.214844 Z M 47.214844 47.214844 " fill-opacity="1" fill-rule="nonzero"/></g></svg>