<?xml version="1.0" standalone="no"?>
<!DOCTYPE svg PUBLIC "-//W3C//DTD SVG 20010904//EN"
 "http://www.w3.org/TR/2001/REC-SVG-20010904/DTD/svg10.dtd">
<svg version="1.0" xmlns="http://www.w3.org/2000/svg"
 width="414.000000pt" height="220.000000pt" viewBox="0 0 414.000000 220.000000"
 preserveAspectRatio="xMidYMid meet">

<g transform="translate(0.000000,220.000000) scale(0.100000,-0.100000)"
fill="#000000" stroke="none">
<path d="M1402 1867 l-22 -23 0 -572 0 -572 870 0 870 0 -2 576 -3 576 -24 19
c-22 18 -51 19 -845 19 l-823 0 -21 -23z m934 -190 c31 -62 58 -113 59 -115 2
-2 43 10 92 27 48 16 116 35 150 42 95 19 93 23 93 -205 0 -106 -5 -219 -11
-252 -30 -167 -150 -305 -315 -365 -82 -30 -225 -30 -308 0 -163 58 -285 196
-316 356 -7 37 -10 140 -8 265 l3 205 43 -2 c23 -1 94 -23 158 -48 64 -26 117
-45 119 -43 1 2 31 59 65 128 34 69 67 128 73 132 23 14 49 -17 103 -125z"/>
<path d="M2198 1596 l-47 -95 35 -20 34 -21 53 32 c28 17 54 33 56 35 6 4 -71
163 -79 163 -3 0 -27 -42 -52 -94z"/>
<path d="M2575 1545 c-113 -30 -285 -107 -285 -126 0 -4 17 -19 38 -35 64 -48
172 -156 233 -232 l59 -73 11 27 c23 63 29 127 27 290 l-3 171 -80 -22z"/>
<path d="M1842 1358 l3 -204 33 -67 c126 -256 461 -316 656 -118 l47 47 -51
67 c-164 216 -418 396 -668 472 l-23 7 3 -204z"/>
<path d="M1270 525 c0 -92 3 -108 20 -125 20 -20 33 -20 958 -20 l939 0 21 23
c20 21 22 34 22 125 l0 102 -355 0 -355 0 0 -74 c0 -58 -3 -75 -16 -80 -9 -3
-128 -6 -264 -6 -287 0 -270 -6 -270 99 l0 61 -350 0 -350 0 0 -105z"/>
<path d="M2040 585 l0 -45 205 0 205 0 0 45 0 45 -205 0 -205 0 0 -45z"/>
</g>
</svg>
