<?xml version="1.0" standalone="no"?>
<!DOCTYPE svg PUBLIC "-//W3C//DTD SVG 20010904//EN"
 "http://www.w3.org/TR/2001/REC-SVG-20010904/DTD/svg10.dtd">
<svg version="1.0" xmlns="http://www.w3.org/2000/svg"
 width="422.000000pt" height="224.000000pt" viewBox="0 0 422.000000 224.000000"
 preserveAspectRatio="xMidYMid meet">

<g transform="translate(0.000000,224.000000) scale(0.100000,-0.100000)"
fill="#000000" stroke="none">
<path d="M940 1838 c-24 -13 -58 -40 -74 -61 l-31 -39 -5 -406 -5 -407 -30 -3
c-52 -6 -55 -14 -55 -151 0 -140 4 -151 57 -151 31 0 33 -2 33 -37 1 -94 83
-163 195 -163 l63 0 6 -34 c4 -18 24 -60 44 -92 106 -163 311 -197 467 -79 44
34 93 108 107 162 l10 43 445 0 c346 0 444 -3 447 -12 22 -76 45 -119 90 -163
85 -85 178 -116 283 -95 113 23 205 103 244 211 l22 59 61 0 c82 1 137 26 173
81 l28 43 0 246 0 246 -27 41 c-42 64 -73 73 -241 73 l-145 0 -47 128 c-25 70
-74 205 -108 301 -70 195 -104 248 -175 269 -29 9 -271 12 -914 12 l-874 0
-44 -22z m2001 -493 c37 -104 69 -191 69 -192 0 -2 -102 -3 -227 -3 -309 0
-313 3 -313 195 0 121 8 148 52 175 30 18 48 20 191 18 l159 -3 69 -190z
m-1431 -675 c99 -51 146 -159 116 -264 -48 -165 -239 -227 -365 -119 -59 50
-85 105 -85 178 0 173 181 284 334 205z m1489 14 c136 -40 200 -193 135 -323
-85 -170 -321 -171 -406 -2 -67 131 -3 283 136 327 55 17 73 17 135 -2z"/>
</g>
</svg>
