<svg xmlns="http://www.w3.org/2000/svg" xmlns:xlink="http://www.w3.org/1999/xlink" width="500" zoomAndPan="magnify" viewBox="0 0 375 374.999991" height="500" preserveAspectRatio="xMidYMid meet" version="1.0"><defs><clipPath id="e746ee7371"><path d="M 210 6 L 357.570312 6 L 357.570312 143.335938 L 210 143.335938 Z M 210 6 " clip-rule="nonzero"/></clipPath><clipPath id="1120e3d6e1"><path d="M 44.84375 317.40625 L 244.460938 317.40625 L 244.460938 351.203125 L 44.84375 351.203125 Z M 44.84375 317.40625 " clip-rule="nonzero"/></clipPath><clipPath id="823d291618"><path d="M 37.5 84.222656 L 216 84.222656 L 216 328 L 37.5 328 Z M 37.5 84.222656 " clip-rule="nonzero"/></clipPath></defs><g clip-path="url(#e746ee7371)"><path fill="#9ccee9" d="M 235.601562 34.621094 C 235.984375 32.261719 238.351562 19.855469 249.929688 11.894531 C 256.417969 7.421875 264.558594 5.335938 272.394531 6.242188 C 280.234375 7.148438 287.714844 11.097656 292.71875 17.191406 C 295.164062 15.601562 302.671875 11.179688 312.765625 12.113281 C 315.84375 12.390625 323.875 13.128906 330.226562 19.773438 C 337.652344 27.539062 337.128906 37.503906 337.019531 39.3125 C 342.355469 38.820312 347.582031 41.785156 350.878906 46.011719 C 354.179688 50.238281 355.800781 55.507812 356.65625 60.777344 C 357.234375 64.289062 357.507812 67.914062 356.601562 71.34375 C 355.746094 74.5 353.90625 77.355469 351.734375 79.769531 C 345.929688 86.246094 337.378906 90.171875 328.660156 90.390625 C 319.941406 90.609375 311.226562 87.097656 305.09375 80.921875 C 303.828125 82.871094 299.152344 89.429688 290.460938 91.679688 C 281.386719 94.070312 271.40625 90.832031 264.558594 83.421875 C 262.769531 84.378906 241.652344 95.25 224.683594 85.039062 C 222.703125 83.832031 216.707031 80.125 213.105469 72.605469 C 211.921875 70.164062 207.632812 60.171875 212.363281 49.742188 C 216.242188 41.097656 225.289062 35.363281 235.601562 34.621094 Z M 246.492188 104.800781 C 246.492188 106.007812 246.492188 107.242188 246.492188 108.453125 C 246.492188 110.566406 248.359375 112.59375 250.53125 112.484375 C 252.734375 112.375 254.574219 110.703125 254.574219 108.453125 C 254.574219 107.242188 254.574219 106.007812 254.574219 104.800781 C 254.574219 102.6875 252.707031 100.65625 250.53125 100.765625 C 248.359375 100.875 246.492188 102.550781 246.492188 104.800781 Z M 280.894531 117.261719 C 280.894531 119.074219 280.894531 120.910156 280.894531 122.722656 C 280.894531 124.835938 282.761719 126.867188 284.933594 126.757812 C 287.136719 126.648438 288.976562 124.972656 288.976562 122.722656 C 288.976562 120.910156 288.976562 119.074219 288.976562 117.261719 C 288.976562 115.148438 287.109375 113.117188 284.933594 113.226562 C 282.734375 113.308594 280.894531 114.984375 280.894531 117.261719 Z M 308.0625 98.570312 C 307.84375 99.886719 307.648438 101.207031 307.429688 102.523438 C 307.265625 103.621094 307.238281 104.636719 307.84375 105.652344 C 308.335938 106.503906 309.300781 107.296875 310.261719 107.519531 C 312.214844 107.957031 314.882812 106.914062 315.242188 104.691406 C 315.460938 103.375 315.652344 102.054688 315.871094 100.738281 C 316.039062 99.640625 316.066406 98.625 315.460938 97.609375 C 314.964844 96.757812 314.003906 95.964844 313.039062 95.742188 C 311.117188 95.304688 308.421875 96.320312 308.0625 98.570312 Z M 229.6875 128.488281 C 229.6875 129.558594 229.6875 130.601562 229.6875 131.671875 C 229.6875 133.785156 231.558594 135.816406 233.730469 135.707031 C 235.929688 135.59375 237.773438 133.921875 237.773438 131.671875 C 237.773438 130.601562 237.773438 129.558594 237.773438 128.488281 C 237.773438 126.375 235.902344 124.34375 233.730469 124.453125 C 231.558594 124.5625 229.6875 126.238281 229.6875 128.488281 Z M 259.582031 135.101562 C 259.582031 136.472656 259.582031 137.847656 259.582031 139.191406 C 259.582031 141.304688 261.449219 143.335938 263.621094 143.226562 C 265.824219 143.117188 267.664062 141.441406 267.664062 139.191406 C 267.664062 137.820312 267.664062 136.445312 267.664062 135.101562 C 267.664062 132.988281 265.796875 130.957031 263.621094 131.066406 C 261.449219 131.148438 259.582031 132.851562 259.582031 135.101562 Z M 307.953125 129.171875 C 307.953125 130.242188 307.953125 131.285156 307.953125 132.355469 C 307.953125 134.46875 309.824219 136.5 311.996094 136.390625 C 314.195312 136.28125 316.039062 134.609375 316.039062 132.355469 C 316.039062 131.285156 316.039062 130.242188 316.039062 129.171875 C 316.039062 127.058594 314.167969 125.027344 311.996094 125.136719 C 309.824219 125.25 307.953125 126.921875 307.953125 129.171875 Z M 329.101562 115.503906 C 328.960938 117.480469 328.824219 119.457031 328.6875 121.433594 C 328.550781 123.546875 330.667969 125.578125 332.730469 125.46875 C 335.039062 125.359375 336.636719 123.683594 336.773438 121.433594 C 336.910156 119.457031 337.046875 117.480469 337.183594 115.503906 C 337.324219 113.390625 335.207031 111.359375 333.144531 111.46875 C 330.832031 111.582031 329.265625 113.253906 329.101562 115.503906 Z M 329.101562 115.503906 " fill-opacity="1" fill-rule="nonzero"/></g><path fill="#186ab4" d="M 292.554688 61.902344 C 292.25 63.273438 290.984375 64.289062 289.636719 64.289062 C 289.199219 64.289062 288.785156 64.179688 288.371094 63.988281 C 286.253906 62.972656 284.109375 62.480469 281.800781 62.480469 C 279.765625 62.480469 277.621094 62.835938 274.59375 63.660156 C 274.320312 63.742188 274.074219 63.769531 273.796875 63.769531 C 272.230469 63.769531 271.242188 62.507812 271.074219 61.242188 C 270.882812 59.789062 271.679688 58.582031 273.082031 58.195312 C 276.410156 57.292969 279.160156 56.878906 281.71875 56.878906 C 284.992188 56.878906 288.070312 57.59375 291.121094 59.046875 C 292.277344 59.597656 292.828125 60.695312 292.554688 61.902344 Z M 275.832031 40.933594 C 276.054688 40.988281 276.273438 41.015625 276.492188 41.015625 C 277.867188 41.015625 278.996094 40.164062 279.296875 38.929688 L 280.039062 35.746094 C 280.207031 34.976562 280.066406 34.152344 279.65625 33.46875 C 279.269531 32.863281 278.691406 32.453125 278.003906 32.289062 C 277.785156 32.234375 277.566406 32.207031 277.34375 32.207031 C 275.96875 32.207031 274.84375 33.054688 274.539062 34.292969 L 273.796875 37.476562 C 273.632812 38.242188 273.769531 39.066406 274.183594 39.753906 C 274.566406 40.355469 275.144531 40.796875 275.832031 40.933594 Z M 295.796875 32.753906 C 295.578125 32.699219 295.332031 32.644531 295.082031 32.644531 C 293.761719 32.644531 292.609375 33.523438 292.304688 34.757812 C 292.003906 36.046875 291.617188 37.335938 291.179688 38.601562 C 290.957031 39.257812 291.011719 40 291.371094 40.660156 C 291.753906 41.371094 292.414062 41.921875 293.15625 42.140625 C 293.40625 42.195312 293.652344 42.25 293.898438 42.25 C 295.109375 42.25 296.183594 41.453125 296.621094 40.21875 C 297.089844 38.902344 297.476562 37.558594 297.804688 36.210938 C 298.164062 34.675781 297.28125 33.164062 295.796875 32.753906 Z M 295.796875 32.753906 " fill-opacity="1" fill-rule="nonzero"/><path fill="#ffffff" d="M 337.652344 62.121094 C 338.066406 61.050781 339 60.449219 340.15625 60.722656 C 341.144531 60.941406 341.941406 62.230469 341.558594 63.21875 C 341.199219 64.179688 340.816406 65.140625 340.457031 66.101562 C 340.046875 67.171875 339.109375 67.777344 337.957031 67.5 C 336.964844 67.28125 336.167969 65.992188 336.550781 65.003906 C 336.910156 64.042969 337.269531 63.082031 337.652344 62.121094 Z M 346.175781 58.800781 C 345.875 59.761719 345.546875 60.722656 345.242188 61.683594 C 344.914062 62.699219 345.628906 63.933594 346.644531 64.179688 C 347.773438 64.425781 348.789062 63.851562 349.148438 62.78125 C 349.449219 61.820312 349.78125 60.859375 350.082031 59.898438 C 350.414062 58.882812 349.699219 57.648438 348.679688 57.402344 C 347.550781 57.125 346.535156 57.703125 346.175781 58.800781 Z M 342.300781 70 C 342.164062 70.519531 342.023438 71.015625 341.886719 71.535156 C 341.613281 72.550781 342.246094 73.785156 343.289062 74.035156 C 344.363281 74.28125 345.488281 73.703125 345.792969 72.632812 C 345.929688 72.113281 346.066406 71.617188 346.207031 71.097656 C 346.480469 70.082031 345.847656 68.847656 344.800781 68.597656 C 343.730469 68.351562 342.601562 68.902344 342.300781 70 Z M 243.6875 29.105469 C 243.273438 29.898438 242.832031 30.695312 242.421875 31.492188 C 241.925781 32.425781 242.144531 33.742188 243.136719 34.265625 C 244.070312 34.757812 245.363281 34.539062 245.914062 33.550781 C 246.324219 32.753906 246.765625 31.957031 247.179688 31.164062 C 247.671875 30.230469 247.453125 28.910156 246.464844 28.390625 C 245.527344 27.894531 244.234375 28.117188 243.6875 29.105469 Z M 253.367188 25.234375 C 252.953125 26.113281 252.511719 26.964844 252.101562 27.839844 C 251.632812 28.800781 251.796875 30.066406 252.816406 30.613281 C 253.722656 31.082031 255.097656 30.914062 255.59375 29.898438 C 256.003906 29.023438 256.445312 28.171875 256.859375 27.292969 C 257.324219 26.332031 257.160156 25.070312 256.144531 24.519531 C 255.234375 24.027344 253.859375 24.21875 253.367188 25.234375 Z M 246.1875 37.0625 C 245.472656 38.132812 244.730469 39.175781 244.015625 40.246094 C 243.410156 41.125 243.824219 42.523438 244.730469 43.019531 C 245.746094 43.566406 246.875 43.238281 247.507812 42.304688 C 248.222656 41.234375 248.964844 40.191406 249.679688 39.121094 C 250.285156 38.242188 249.871094 36.84375 248.964844 36.351562 C 247.921875 35.800781 246.820312 36.128906 246.1875 37.0625 Z M 246.1875 37.0625 " fill-opacity="1" fill-rule="nonzero"/><g clip-path="url(#1120e3d6e1)"><path fill="#e6e6e6" d="M 244.453125 341.460938 C 243.855469 349.902344 198.683594 353.554688 143.566406 349.625 C 88.445312 345.691406 44.25 335.660156 44.851562 327.21875 C 45.453125 318.78125 90.621094 315.125 145.742188 319.058594 C 200.859375 322.988281 245.054688 333.019531 244.453125 341.460938 " fill-opacity="1" fill-rule="nonzero"/></g><path fill="#ef8a1b" d="M 150.3125 319.058594 C 150.3125 319.058594 189.484375 302.203125 196.289062 312.449219 C 203.09375 322.695312 190.460938 321.613281 190.460938 321.613281 C 190.460938 321.613281 206.570312 317.941406 203.335938 327.550781 C 200.105469 337.15625 130.1875 333.8125 134.105469 326.457031 C 138.023438 319.105469 150.3125 319.058594 150.3125 319.058594 " fill-opacity="1" fill-rule="nonzero"/><path fill="#ff9817" d="M 212.925781 162.007812 C 212.925781 162.007812 228.226562 174.972656 234.113281 196.1875 C 234.113281 196.1875 212.101562 200.121094 200.15625 188.136719 C 188.207031 176.152344 212.925781 162.007812 212.925781 162.007812 " fill-opacity="1" fill-rule="nonzero"/><g clip-path="url(#823d291618)"><path fill="#000000" d="M 200.15625 188.136719 C 208.871094 177.164062 214.101562 163.148438 214.101562 147.867188 C 214.101562 112.71875 186.433594 84.222656 152.304688 84.222656 C 118.175781 84.222656 90.507812 112.71875 90.507812 147.867188 C 90.507812 154.671875 91.554688 161.222656 93.476562 167.371094 C 89.726562 171.824219 68.140625 199.507812 68.140625 246.867188 C 68.140625 298.722656 37.535156 296.363281 37.535156 296.363281 C 37.535156 296.363281 75.203125 323.472656 128.171875 327.007812 C 181.144531 330.542969 210.570312 299.902344 215.28125 261.007812 C 218.792969 231.992188 206.582031 201.667969 200.15625 188.136719 " fill-opacity="1" fill-rule="nonzero"/></g><path fill="#ffffff" d="M 208.21875 169.082031 C 208.21875 169.082031 210.425781 121.21875 172.902344 117.683594 C 130.527344 113.6875 111.695312 163.1875 144.652344 185.578125 C 144.652344 185.578125 101.101562 223.292969 114.046875 270.4375 C 126.996094 317.578125 168.195312 317.578125 189.382812 309.328125 C 189.960938 309.105469 190.597656 308.890625 191.269531 308.683594 C 204.957031 296.667969 213.003906 279.800781 215.28125 261.007812 C 218.792969 231.992188 206.582031 201.667969 200.15625 188.136719 C 204.71875 182.390625 208.316406 175.800781 210.71875 168.640625 L 208.21875 169.082031 " fill-opacity="1" fill-rule="nonzero"/><path fill="#000000" d="M 186.839844 166.253906 C 182.613281 166.253906 179.25 161.511719 179.101562 161.300781 L 180.441406 160.359375 C 180.472656 160.40625 183.738281 164.972656 187.269531 164.59375 C 189.488281 164.347656 191.464844 162.183594 193.140625 158.160156 L 194.648438 158.789062 C 192.726562 163.410156 190.300781 165.910156 187.441406 166.21875 C 187.238281 166.242188 187.039062 166.253906 186.839844 166.253906 " fill-opacity="1" fill-rule="nonzero"/><path fill="#ff9817" d="M 139.292969 324.648438 C 139.292969 324.648438 181.667969 319.9375 185.199219 331.722656 C 188.730469 343.507812 176.957031 338.792969 176.957031 338.792969 C 176.957031 338.792969 193.4375 339.972656 187.550781 348.222656 C 181.667969 356.472656 115.75 332.898438 121.632812 327.007812 C 127.519531 321.113281 139.292969 324.648438 139.292969 324.648438 " fill-opacity="1" fill-rule="nonzero"/><path fill="#000000" d="M 131.703125 196.1875 C 131.703125 196.1875 143.476562 244.507812 171.726562 265.722656 C 171.726562 265.722656 119.933594 282.222656 109.339844 232.722656 C 98.746094 183.222656 131.703125 196.1875 131.703125 196.1875 " fill-opacity="1" fill-rule="nonzero"/></svg>